<svg id="LOGO_COLOR" data-name="LOGO COLOR" xmlns="http://www.w3.org/2000/svg" width="1200" height="1200" viewBox="668 120 1200 1200">
  <defs>
    <style>
      .cls-1 {
        fill: #fff;
      }

      .cls-1, .cls-2 {
        fill-rule: evenodd;
      }

      .cls-2 {
        fill: #cf0100;
      }
    </style>
  </defs>
  <path id="INTERACTIVE" class="cls-1" d="M814.166,1296.11L814,1229.01q-0.007-3.285-3.193-3.28-3.082.015-3.074,3.3l0.163,67.09c0.006,2.19,1.036,3.29,3.091,3.28q3.183,0,3.177-3.29h0Zm53.529-.03-0.144-59.28,45.046,60.4a4.169,4.169,0,0,0,3.4,1.95c1.711-.01,2.566-1.07,2.56-3.2l-0.164-67.4c0-2.05-.968-3.08-2.884-3.07q-2.982,0-2.972,3.09l0.144,59.28-45.046-60.3a4.843,4.843,0,0,0-1.391-1.54,3.693,3.693,0,0,0-1.9-.41q-2.673.015-2.663,3.3l0.164,67.19q0.008,3.2,2.987,3.18c1.917,0,2.874-1.07,2.869-3.19h0Zm122.778-.4-0.156-64.12,24.663-.06q2.97,0,2.97-2.88c-0.01-1.85-1-2.77-2.99-2.77l-55.583.14c-2.055,0-3.08.93-3.075,2.78,0,1.92,1.034,2.87,3.089,2.87l24.556-.06,0.156,64.11q0.008,3.3,3.193,3.28,3.183,0,3.177-3.29h0Zm107.887,2.4c1.92,0,2.87-.93,2.87-2.78,0-1.78-.97-2.67-2.88-2.66l-36.17.09-0.07-28.57,34.11-.08c1.92,0,2.88-.93,2.87-2.78,0-1.78-.96-2.67-2.88-2.66l-34.11.08-0.07-27.54,36.17-.08c1.91-.01,2.87-0.94,2.87-2.79-0.01-1.78-.97-2.66-2.89-2.66l-38.83.1q-3.495,0-3.49,3.6l0.16,65.24c0.01,2.4,1.17,3.6,3.5,3.59Zm51.88-2.79-0.07-28.67,14.69-.03a19.912,19.912,0,0,1,8.84,1.62q3.285,1.635,5.98,6.46l11.56,21.44a3.951,3.951,0,0,0,3.7,2.36,2.259,2.259,0,0,0,2.31-1.45,3.721,3.721,0,0,0-.37-3.18l-10.94-20.22q-3.4-6.36-7.83-7.99,8.115-1.455,12.52-6.5t4.39-13.17q-0.03-9.855-6.15-15.19t-17.74-5.3l-24.14.06q-3.2.015-3.18,3.3l0.16,66.47q0.015,3.3,3.09,3.28,3.18,0,3.18-3.29h0Zm-0.16-64.32,20.24-.05q18.285-.045,18.33,15.06,0.03,15.21-18.25,15.25l-20.24.05Zm90.37,64.51,7.25-17.08,38.84-.09,7.34,17.04a6.208,6.208,0,0,0,1.49,2.1,3.374,3.374,0,0,0,2.31.77,2.465,2.465,0,0,0,2.52-1.3,3.66,3.66,0,0,0-.37-3.13l-29.03-66.3c-0.83-1.92-2.1-2.87-3.81-2.87s-2.98.97-3.79,2.89l-28.71,66.44a3.673,3.673,0,0,0-.2,3.14,2.641,2.641,0,0,0,2.67,1.27q2.265,0,3.49-2.88h0Zm26.66-62.43,17.05,39.82-34.11.08,16.86-39.9h0.2Zm127.44,57.12a3.178,3.178,0,0,0,1.28-2.98,3.008,3.008,0,0,0-1.65-2.36c-0.93-.48-2-0.24-3.23.73a28.907,28.907,0,0,1-19.3,6.82q-12.75.03-19.6-8.12t-6.88-23.05q-0.045-14.79,6.77-22.98t19.55-8.21q11.415-.03,19.23,6.63c1.24,0.96,2.33,1.19,3.29.71a2.9,2.9,0,0,0,1.64-2.42,3.465,3.465,0,0,0-1.55-3.13,29.537,29.537,0,0,0-10.08-5.68,38.984,38.984,0,0,0-12.64-1.97q-10.38.03-17.77,4.51a29.208,29.208,0,0,0-11.32,12.82q-3.93,8.34-3.91,19.74,0.03,11.505,4.01,19.82a29.073,29.073,0,0,0,11.38,12.76q7.41,4.455,17.79,4.43,14.07-.03,22.99-8.07h0Zm67.62,4.36-0.16-64.12,24.66-.06c1.99,0,2.98-.96,2.98-2.88-0.01-1.85-1.01-2.77-2.99-2.77l-55.59.14c-2.05,0-3.08.93-3.07,2.78,0,1.92,1.03,2.87,3.09,2.87l24.55-.06,0.16,64.11c0.01,2.19,1.07,3.29,3.19,3.28s3.19-1.1,3.18-3.29h0Zm71.82-.18-0.17-67.09c0-2.19-1.07-3.29-3.19-3.28-2.05,0-3.08,1.1-3.07,3.29l0.16,67.1q0.015,3.285,3.09,3.28,3.18-.015,3.18-3.3h0Zm75.52,2.39a5.245,5.245,0,0,0,1.54-2.27l28.7-66.75a3.032,3.032,0,0,0,0-2.88,2.6,2.6,0,0,0-2.37-1.12,3.7,3.7,0,0,0-3.49,2.47l-26.76,62.74-27.07-62.61a5.957,5.957,0,0,0-1.34-1.84,3.256,3.256,0,0,0-2.16-.61,3.093,3.093,0,0,0-2.47,1.08,2.727,2.727,0,0,0-.19,2.93l29.03,66.61c0.89,1.99,2.27,2.98,4.12,2.97A3.91,3.91,0,0,0,1609.51,1296.74Zm112.92-.18c1.91,0,2.87-.93,2.87-2.78-0.01-1.78-.97-2.67-2.89-2.66l-36.16.09-0.07-28.57,34.11-.08c1.91,0,2.87-.93,2.87-2.78-0.01-1.78-.97-2.67-2.89-2.67l-34.11.09-0.06-27.54,36.16-.09c1.92,0,2.88-.93,2.87-2.78,0-1.78-.96-2.67-2.88-2.66l-38.84.09q-3.5.015-3.48,3.61l0.16,65.24c0,2.4,1.17,3.59,3.5,3.59Z"/>
  <path id="MINDNUMB" class="cls-2" d="M804.642,1185.76l15.133-7.17v-78.06q0-10.665,5.735-17.28,7.088-8.2,18.558-8.2t18.558,8.2q5.735,6.615,5.735,17.28v85.23h0.8l15.133-7.17v-78.06q0-10.665,5.735-17.28,7.087-8.2,18.558-8.2t18.558,8.2q5.735,6.615,5.735,17.28v85.23h0.8l15.133-7.17v-78.06q0-17.6-10.752-28.27-11.63-11.55-29.47-11.55-15.771,0-27.8,11.79a32,32,0,0,0-4.46,5.33,23.979,23.979,0,0,0-4.3-5.57,38.08,38.08,0,0,0-27.957-11.55q-18.16,0-29.47,11.55-10.752,11.07-10.752,28.27v85.23h0.8Zm176.819,0,15.133-7.17V1059.12h-0.8l-15.133,7.16v119.48h0.8Zm47.789,0,15.13-7.17v-78.06q0-10.665,5.74-17.28,7.08-8.2,18.56-8.2,11.46,0,18.55,8.2,5.745,6.615,5.74,17.28v85.23h0.8l15.13-7.17v-78.06q0-17.6-10.75-28.27-11.55-11.55-29.47-11.55-18.165,0-29.47,11.55-10.755,11.07-10.76,28.27v85.23h0.8Zm150.14-3.19q18.15,0,29.47-11.55,10.755-10.995,10.75-28.27v-40.62q0-17.37-10.75-28.28-11.31-11.55-29.47-11.55H1149.2l-8.44,3.98v116.29h38.63Zm-22.7-105.93h22.7q11.46,0,18.56,8.2,5.73,6.615,5.73,17.29v40.62q0,10.665-5.73,17.28-7.1,8.205-18.56,8.2h-22.7v-91.59Zm95.58,109.12,15.13-7.17v-78.06q0-10.665,5.73-17.28,7.095-8.2,18.56-8.2t18.56,8.2q5.73,6.615,5.73,17.28v85.23h0.8l15.13-7.17v-78.06q0-17.6-10.75-28.27-11.55-11.55-29.47-11.55-18.165,0-29.47,11.55-10.755,11.07-10.75,28.27v85.23h0.8Zm191.15-126.64-15.13,7.16v78.06q0,10.68-5.74,17.28-7.08,8.2-18.56,8.21-11.46,0-18.55-8.21-5.745-6.6-5.74-17.28v-85.22h-0.79l-15.14,7.16v78.06q0,17.61,10.76,28.28,11.535,11.535,29.46,11.54,18.165,0,29.47-11.54,10.755-11.07,10.76-28.28v-85.22h-0.8Zm33.45,126.64,15.14-7.17v-78.06q0-10.665,5.73-17.28,7.1-8.2,18.56-8.2t18.56,8.2q5.73,6.615,5.73,17.28v85.23h0.8l15.13-7.17v-78.06q0-10.665,5.74-17.28,7.08-8.2,18.55-8.2t18.56,8.2q5.745,6.615,5.74,17.28v85.23h0.79l15.14-7.17v-78.06q0-17.6-10.76-28.27-11.625-11.55-29.47-11.55-15.765,0-27.79,11.79a31.62,31.62,0,0,0-4.46,5.33,24.111,24.111,0,0,0-4.3-5.57,38.083,38.083,0,0,0-27.96-11.55q-18.165,0-29.47,11.55-10.755,11.07-10.75,28.27v85.23h0.79Zm191.96-62.61h22.69q12.825,0,18.8,7.33a23.163,23.163,0,0,1,5.5,15.69q0,9-5.18,14.5-7.1,7.56-19.12,7.56h-22.69v-45.08Zm0-46.51h22.69q7.335,0,11.95,4.06,5.175,4.86,5.18,10.91,0,7.41-4.3,12.03-4.86,5.175-12.83,5.18h-22.69v-32.18Zm22.69,105.93q19.125,0,30.03-10.91,10.2-10.11,10.2-25.89a34.117,34.117,0,0,0-11.63-26.28,29.673,29.673,0,0,0-7.73-5.02q12.1-9.075,12.11-22.78a27.155,27.155,0,0,0-10.59-22.06q-8.925-7.32-22.39-7.33h-30.18l-8.44,3.98v116.29h38.62Z"/>
  <path id="Melting_Cube" data-name="Melting Cube" class="cls-1" d="M856.725,404.076c3.508-3.9-6.17-9.725,1.1-16.494s23.152-19.62,26.39-21.991,4.459-7.892,5.5-9.9,14.355-8.258,16.494-11-1.772-7.892,1.1-9.9,11.057-8.992,14.3-9.9,19.486-17.054,21.991-17.593,13.989-10.824,15.394-13.195,14.2-15.809,15.394-17.593c3.788-5.67.061,1.271,5.5-7.7s9.9-7.7,9.9-7.7,2.26-6.426,2.2-9.9,7.392-7.159,15.4-11,20.58-16.688,24.19-20.892,13.62-19.987,17.59-29.688,10.69-18.155,20.89-29.689,3.36-10.091,15.4-12.095,40.01-10.824,50.58-5.5,14.35,8.235,25.29,8.8,13.25,3.837,16.49,5.5,32.32,4.2,36.29,3.3,20.95-8.625,24.19-6.6,9.95,5.669,12.09,6.6,45.15-7.159,62.68-5.5,18.75-.928,26.39-1.1,11.42-2.761,15.39-3.3,14.36-.2,19.79,3.3,5.2,4.936,12.1,5.5,13.26-.2,21.99-2.2,34.52-.927,46.18-1.1,22.42-2.761,26.39-1.1,38.92-2.394,43.99-1.1,18.38-.928,26.39,6.6,15.82,17.032,16.49,23.091,6.66,32.793,4.4,40.684-0.67,10.068,0,14.295-0.67,11.168-1.1,16.494,4.09,29.493,3.3,35.186-3.24,49.653-2.2,63.775,3.36,10.068,4.4,15.394-4.34,20.331-4.4,26.39-0.67,7.136,1.1,24.191,7.02,27.294,7.69,34.087,3.6,31.14,4.4,39.584-5.2,30.591-3.3,38.485,8.54,23.993,6.6,42.884,1.39,84.47,0,92.364-16.2,33.889-20.89,39.585-32.7,31.69-42.88,45.082-29.4,30.041-38.49,43.983-29.95,43.786-31.89,47.282-7.4.352-8.79,6.6-5.21,20.694-9.9,27.489-12.9,10.248-16.49,19.792-16.2,10.8-24.19,11-32.15.9-45.09-1.1-68.43-10.093-80.27-8.8-51.38-2.947-54.97-5.5-25-5.146-31.89-3.3-25.55.9-31.89-1.1-38.19-10.644-42.88-8.8-57.44,15.2-82.47,13.2-44.791-11.193-52.78-5.5-20.6,15.2-40.685,6.6S894.952,874.5,888.612,858.2s-1.357-38.683,1.1-48.381,8.539-22.189,8.8-26.39-18.4-15.592-18.693-26.39,0.841-11.743,3.3-17.593,3.041-13.942,0-18.693-1.357-8.994,0-17.593,1.942-22.189,1.1-24.191-7.405-28.236-8.8-35.186,3.59-13.392,3.3-19.792-3.007-33.735,1.1-46.182,6.889-19.99,6.6-21.992-5.206-16.691-7.7-29.688-10.154-41.982-8.8-47.282-1.908-23.839-3.3-28.589-7.4-13.393-7.7-19.792S851.777,409.574,856.725,404.076ZM1475.79,187.46c9.84-1.343,27.78-9,35.18,0s14.59,18.5,14.3,30.788-50.29,76.223-71.48,96.762-67.88,78.422-76.97,90.165-47.54,42.136-51.68,42.884-7.95,9.7-29.68,9.9-15.11-.747-8.8,4.4,34.38,5.3,38.48,15.394,15.69,41.037,16.5,56.079-2.46,28.391-7.7,36.286-5.21,11.347,2.2,16.493,21.18,5.3,21.99,13.195-0.81,10.248-3.3,15.394-9.6,11.348-5.5,21.992,12.39,16.845,12.1,27.489,1.39,25.093-3.3,36.286,11.84,113.059,9.9,133.049-2.46,25.642,0,28.588,10.19,6.4,10.99-1.1,8.54-83.216,6.6-100.061-4.66-52.978-2.2-57.178,4.69-16.692,3.3-36.286-7.41-57.926-5.5-62.676,2.49-49.679,0-65.975-2.46-32.635,0-46.182-3-29.886,3.3-42.883,25.03-35.384,37.39-52.78,31.63-29.886,37.38-42.883,23.38-25.488,31.89-39.585,24.48-46.38,31.89-49.481,7.99-18.34,19.79-15.394,16.24,4.751,15.39,12.1-5.2,7.5-6.59,2.2-4.66-6.245-2.2,5.5-0.26,20.144,2.2,26.389,8.53,10.249,7.69,17.594-3.55,9.148-1.1,17.593-0.25,18.5,0,26.39,4.69,15.746,3.3,21.991-10.15,38.288-8.79,49.481,2.49,20.694,6.59,29.689,12.94,18.5,9.9,45.082-12.9,43.236-6.6,51.68,6.89,23.993,6.6,28.589,0.29,16.3,2.2,19.792,6.34,6.4,3.3,14.3-0.81,8.6-1.1,16.494-4.66-15.592-5.5-19.793-0.81,22.894,1.1,30.788,0.29,17.4-4.4,26.39-31.05,38.288-34.09,47.282-21.7,27.292-24.19,29.688-19.5,17.4-26.39,28.589-34.89,38.838-38.48,50.581-12.35,19.045-16.5,23.091-11.8,24.543-12.09,30.788-14.55,14.1-25.29,14.294-29.4-5.145-35.19-4.4-18.69,2.2-18.69,2.2-23.9.352-51.68-12.1-87.67-5.7-97.86-5.5-23.35.9-67.08-6.6-35.99-.747-46.18,1.1-55.78,8.049-56.08,6.6,6.34-6.795-7.69-8.8-58.539.352-64.878,3.3-22.25,2-30.789-11-7.4-44.181-3.3-51.68,9.088-12.843,4.4-29.689-17.3-30.436-16.494-39.584,6.34-32.086,3.3-41.784,5.79-18.341,5.5-25.29-8.5-29.887-8.8-35.187,0.842-9.544,1.1-14.294S894.4,607.3,894.11,598.7s2.491-16.691,3.3-24.19-0.258-40.332,0-51.68,0.842-10.094,4.4-24.191-2.457-40.332-4.4-43.983-5.5,5.5-5.5,5.5-9.054.9-6.6-7.7,2.491-13.392,1.1-16.494,0.842,4.2-3.3,4.4-3.556-9.544-2.2-14.3-5.206-11.193-1.1-19.792,4.69-4.046,17.593-14.295S933.437,361,945.79,345.8s25.582-20.539,37.386-26.389,21.184-16.692,27.494-21.992,13.48-8.994,23.09-17.593,4.14-14.492,12.09-25.29,6.34-11.194,18.69-20.892,11.84-4.046,20.9-17.594,11.83-17.79,15.39-18.692,4.14-5.146,5.5-8.8,9.64-8.444,10.99-4.4,6.34-8.445,5.5-11,0.84-9.544,3.3-6.6,9.64,5.85,15.39,4.4,25.04-5.146,41.79,5.5,32.18,12.447,36.28,11,28.34-1.847,31.89-2.2,13.49-3.5,24.19,2.2,31.08,5.3,37.39,1.1,21.18-2.4,25.29,1.1,14.58,2,19.79-1.1,22.83-2.946,28.59,1.1,17.88-5.146,28.59-4.4,29.43-4.046,35.19,0S1463.69,189.109,1475.79,187.46Zm-355.17,13.194c-0.95-6.345,3.97-10.74,7.7-13.194s16.06-4.693,26.39-1.1,17.71-1.944,18.69,5.5-11.42,15.1-10.99,20.892,0.67,7.4,1.1,12.1-7.58-.294-5.5,5.5,1.77,50.286,1.1,57.178,2.32,12.9-1.1,9.9-10.88-16.788-9.9-23.091-8.13-10.191-5.5-14.3,2.32-10.74-3.29-28.588,0.11-17.339-11-19.793S1122.27,211.65,1120.62,200.654ZM907.305,399.677c7.218-7.217,22.66-10.74,28.589-15.394s15.513-18.437,17.593-15.394-4.279,11.251-4.4,16.494,5.067,6.3,9.9,8.8,13.314,1.354,17.593,1.1,12.764-3.593,21.992,2.2,27.06,4.1,31.89,5.5,16.61-1.394,18.69,4.4-7.58,7.4-15.39,7.7-44.967-4.144-56.082-3.3-19.124-7.442-26.39-5.5-10.327,2.454-14.294,4.4-0.981,5.2-6.6,7.7-10.876,4.654-13.195,8.8-4.279,13.45-7.7,11,7.267-8.542,0-12.1S896.309,410.673,907.305,399.677ZM934.8,832.91s1.218-16.494,6.6-28.589-0.981-20.342,0-23.091,5.067-8.8,9.9-8.8,3.968,7.7,6.6,14.295,0.119,15.394,6.6,9.9,17.162-10.446,21.992-15.394,4.517-11.546,18.695-16.494,25.96-18.143,28.59-18.692,14.96-18.143,19.79-14.295-5.38,11.546-6.6,18.693-5.38,17.593-10.99,17.593-18.03,13.2-20.9,15.394-20.769,16.494-28.585,25.29-21.323,14.845-21.992,21.992-2.08,15.394-4.4,16.493,0.119,15.944-5.5,8.8S935.894,829.611,934.8,832.91Zm-74.771,183.63c6.084-2.37,14.731-1.6,21.991-1.1s4.835-5.26,9.9-7.7,15.831-4.53,21.992-3.3,8.866-1.6,14.294-2.2,2.636-4.527,6.6-6.593,43.686-4.531,41.783-3.3,0.437,3.533,6.6,3.3a145.967,145.967,0,0,0,23.094-3.3c5.06-1.333,7.03.6,21.99,1.1s26.09,5.365,30.79,6.6,16.93,0.96,24.19,2.19,41.48,9.4,45.08,9.9,18.4,0.23,28.59,4.4,14.36,2.43,19.79,1.1,18.76-2.7,30.79-2.2,33.42-2.7,37.38-3.3,3.37-4.16,6.6-3.3,55.42-1.23,76.97-6.6,89.5-.13,96.76-1.1,20.23,0.24,24.2,1.1,2.63,3.9,5.49,5.5,23.16-.13,27.49-2.2,11.44-1.6,19.8-2.2,26.09-1.96,31.88-3.29,1.17-2.7,3.3-5.5,7.4-3.065,12.1-3.3,3,3.9,8.79,4.4,5.57-2.332,19.8-5.5,25.84-12.485,36.28-17.593,12.65-10.652,12.1-16.494-2.01-10.652-5.5-18.692-11.54-14.684-9.9-18.693-0.91-15.417-1.1-23.091,3.86-5.154,6.6-6.6,8.62-2.955,12.1-5.5,8.98-4.054,16.49-7.7,7.89-5.154,9.9-11,4.58-8.453,9.89-13.2,8.62-13.584,8.8-16.494-3.11-.023-3.3-4.4,0.56-4.055,3.3-2.2,4.59-1.123,6.6-5.5-0.91-5.887-3.3-8.8-3.85-1.489-4.4-4.4,1.29-5.154,1.1-9.9-0.55-15.417,1.1-20.892,4.95-9.553,10.99-11,6.79-8.819,11-13.195,7.15-12.484,14.29-13.2,11.56-2.222,15.4-4.4,15.95-.389,21.99-2.2,5.32-5.154,6.6-11,0.55-7.353,3.3-9.9,0.19-3.322,0-8.8-0.18-7.72,4.39-8.8,2.39-13.218,4.4-23.091-7.51-19.449-9.89-23.092-6.41-8.086-9.9-9.9-10.81-4.421-12.1-7.7-6.04-5.52-15.39-6.6-46.73-5.154-50.58-2.2-19.13,8.407-26.39,8.8-28.3-4.054-32.99-1.1-9.97,9.14-10.99,13.2,4.32,4.009,7.69,7.7,11.29,11.339,13.2,16.493,3.22,7.308-1.1,11-7.04,11.706-7.7,17.593-3.37,5.842-8.79,8.8-10.71,6.208-17.6,9.9-13.27,10.973-18.69,17.593-9.24,16.838-11,19.793a84.631,84.631,0,0,1-7.69,9.9c-1.39,1.489-4.11,6.208-6.6,7.7s-4.84.71-5.5,3.3-2.27,4.01-7.69,5.5-9.24,8.774-11,11-4.84,6.941-7.7,6.6-5.94,2.176-6.59,5.5-0.08,6.209-3.3,8.8-14.74,21.236-17.6,23.091-2.27,5.842-6.59,7.7-1.18,10.24-3.3,13.195-9.97,24.168-11,28.589-9.24,12.806-12.09,15.394-17.31,12.073-25.29,16.494-20.97,7.307-24.19,6.6-21.7-2.222-26.39,0-19.51.71-23.1,1.1-7.03-3.322-14.29-3.3-22.43,6.575-26.39,6.6-4.84.711-16.49,1.1-34.9-7.72-36.29-4.4,7.62,2.909,12.1,4.4,6.52,3.642,3.29,4.4-9.87-.756-16.49-3.3-25.82-3.5-49.48-12.1-64.31-8.453-68.17-8.8-15.93,8.04-30.79,5.5-28.02,3.093-38.49,7.7-25.27,5.842-32.98,2.2-26.38,1.443-38.489-3.3-37.369-4.6-48.382-5.5-23.624,8.591-28.588,8.8-13.728.343-16.494-4.4-3.282-.206-12.1-8.8-16.477-7.9-18.693-14.3-1.083-18.349-2.2-23.091-6.581-15.6-6.6-29.688,8.264-27.7,9.9-34.087-3.831-6.8-12.095-12.095-27.472,1.443-36.286,7.7-14.586,19.792-25.29,19.792c-4.4,0-13.125,9.4-16.494,11s-3.961,4.265-4.4,7.7-2.862,5.365-7.7,9.9,1.9,10.863,3.3,15.394-1.763,9.4-2.2,13.195,1.17,9.4,4.4,18.693,10.333,23.324,14.294,21.991,4.835,0.967,5.5,5.5-18.989-1.691-15.394,9.9c3.263,10.516-8.818,7.014-9.9,11-2.377,8.778,8.5,6.1,9.9,8.8s2.018,0.141,0,5.5c-2.086,5.539,7.767,3.9,4.4,6.6s19.958,20.58,27.49,23.091,18.583,14.262,23.091,16.492S855.075,1018.46,860.024,1016.54ZM825.937,859.3c9.33-8.058,11.292-20.026,13.195-21.992s6.16,2.332,2.2,9.9-8.867,13.328-5.5,23.091,2.129,18.093,6.6,20.892,13.125,10.4,4.4,6.6-13.265-9.03-19.793-13.195S809.809,873.228,825.937,859.3ZM1520.87,967.058c3.02,3.886,9.46.5,23.09-4.4s10.56-3.9,15.39-15.394,6.16-18.194-1.1-14.295-9.6,18.459-17.59,20.892S1518.3,963.759,1520.87,967.058Zm-164.94-20.892c-5.86-2.514,14.23-6.831,18.69-8.8s26.32-4.266,34.09-1.1-8.5,3.432-13.19,5.5-8.5,5.264-18.7,6.6S1361.06,948.365,1355.93,946.166Zm62.68-15.394c-4.03-2.515,10.92-2.066,13.19,0s-0.8,6.731-3.3,5.5A80.988,80.988,0,0,1,1418.61,930.772Zm21.99,0c-2.27-1.623,9.46-2.066,17.59-7.7s14.96-.967,18.69-2.2,6.9-.234,15.4-5.5,10.19,1.6,2.2,4.4a97.155,97.155,0,0,1-20.89,4.4c-5.07.6-16.2,2.7-14.3,4.4s8,2.7,17.59,0,13.13-.967,8.8,1.1-11.8,4.531-17.59,6.6-4.4-.454-8.8-2.2S1443.68,932.971,1440.6,930.772ZM1696.8,651.48c-2.35-4.228,16.79.866,24.19,6.6s7.63,5.63,6.6,14.294-3.37,16.26-6.6,19.792-12.16,7.83-12.09,6.6,10.19-11.963,10.99-18.693,2.13-11.229-3.3-15.394S1700.47,658.078,1696.8,651.48Zm1.1,7.7c1.01-2.521,9.46,1.233,11,4.4s0.66,14.061,0,18.693-1.54,8.2-5.5,9.9-0.44-5.731,0-11S1696.43,662.842,1697.9,659.177Zm-152.84,19.792c4.8-5.873,8.02-20.84,8.8-25.29s6.91-17.541,0-25.29a60.97,60.97,0,0,0-17.6-13.2c-3.07-1.7,11.32,20.394,2.2,24.191s-8.48,9.4-16.49,9.9-27.17,1.151-40.69,1.1-18.92,1.7-26.39,4.4,9.12,12.7,15.4,9.9,18.46-8.195,24.19-7.7,3.62,1.151,12.09,2.2,12.97,0.052,25.29,1.1,15.72,0.6,8.8,7.7-6.83,9.947-11,14.294S1535.16,691.065,1545.06,678.969Z"/>
  <path id="Red_Brain" data-name="Red Brain" class="cls-2" d="M1052.45,680.069c8.68,6.6,7.82,13.928,26.39,15.394,3.35,0.265,14.41-13.195,7.7-30.788s-7.03-19.243-4.4-26.39-3.73-29.688-7.7-31.887,1.77-9.347,6.6-9.9,13.86-23.64,10.99-32.987,3.97-36.286,18.7-40.684,14.96-11,14.29-15.394-16.37-18.143-5.5-37.386,27.06-41.784,46.19-45.082,16.61,1.649,17.59-6.6-3.18-32.987,3.3-37.385,8.91-13.195,17.59-16.494,17.71-7.147,20.89-11,2.87-9.9,0-14.294-14.72-19.243-28.59-14.3S1174.62,340.3,1174.5,342.5s-7.03-8.8-13.19-5.5-10.33,1.649-12.1,0-15.82,0-17.59,3.3-5.85,6.942-9.9,7.7c-5.89,1.1-16.37,2.2-26.39,8.8-8.53,5.612-15.37,4.154-15.39,8.8-0.06,10.334-8.4,6.6-7.7,17.593,0.65,10.042,6.17,3.3,6.6,8.8,0.26,3.356-4.83,7.7-6.6,5.5s-2.08-9.9-9.89-6.6-10.88,10.446-5.5,9.9,32,3.849,38.48,8.8,6.17,16.493,0,19.792-65.3,19.243-81.37,37.386-15.271,39.584-9.89,45.082,17.16,6.6,20.89,7.7,6.72,3.3,5.5,6.6-4.83,6.047-9.9,7.7-0.59-4.979,2.2-6.6-6.09-3.512-9.9,1.1a123.418,123.418,0,0,1-10.99,12.1c-3.439,3.146-6.094,24.343,1.1,32.987s17.36,10.782,17.59,13.2-18.92,9.316-25.289,19.793-7.925,32.04-3.3,41.783,22.5,19.579,26.388,20.892S1043.77,673.472,1052.45,680.069Zm68.17-64.875c3.01,2.872-10.85,9.5-14.29,15.394s-7.56,16.463-5.5,24.191,10.77,20.128,23.09,28.589a150.054,150.054,0,0,0,32.99,16.493c6.46,2.23,12.23,8.4,18.69,9.9s25.8,2.9,48.38,1.1,19.93,1.8,24.19,2.2,15.17-9.926,21.99-8.8,15.17,7.666,19.8,9.9,17,2.168,24.19,1.1,12.23-3.7,6.6-5.5-7.56-5.529,0-4.4,9.66,2.535,17.59-2.2,9.3-11.759,9.89-16.494,2.24-15.359-2.19-20.891c-8.94-11.149-9.4-38.15-7.7-42.884s5.64-10.293-1.1-14.294-13.79-.764-18.69-9.9-6.46-14.325-5.5-20.891,10.77-20.19,8.79-30.788-3.74-18.145-5.07-23.224c-2.18-8.359.41-9.567-.42-17.461-0.85-8.036-1.7-12.492-12.1-21.991s-14.15-4.429-15.39-6.6-3.9-4.8-7.7-7.7-3.16-6.994-12.09-5.5-6.83,2.536-7.7-2.2,3.14-10.24,3.3-14.294,9.46-8.866,15.39-9.9,29.54-7.217,35.19-16.494,5.89-9.69,8.79-8.8,6.72-3.092,7.7-3.3,4.79,3.229,0,5.5-11.97,8.727-12.09,12.095,11.11-4.192,13.19-6.6,7.82-10.789,12.1-11,6.44,0.755,8.79-1.1-0.43-6.941,1.1-8.8,11.67-6.941,16.5-14.294,10.84-16.563,9.89-24.191-1.25-21.51-18.69-27.489-9.23-3.643-11-6.6-7.3-6.392-14.29-6.6-44.14,1.031-47.28,1.1-5.93,8.178-2.2,9.9-0.43.481-3.3,1.1-6.2,2.406-6.6,4.4-5.65,3.779-6.6,3.3-11.15-.343-10.99,6.6,10.02,9,12.09,9.9,2.05,3.23,2.2,5.5-39.74-.619-49.48,9.9-17.75,18.349-16.49,27.489a170.539,170.539,0,0,0,5.5,24.191c1.53,5.017-1.1,4.4-1.1,4.4s-20.77,2.955-28.59,9.9-25.72,18.9-28.59,27.489-5.38,29.345,3.3,37.386,12.76,5.154,12.09,11-4.82,5.429-4.4,8.8,2.05,3.779,2.2,5.5-10.05-.069-24.19,6.6-30.94,19.174-34.08,26.39-10.05,19.449-9.9,25.29S1114.3,609.146,1120.62,615.194ZM1440.6,407.375c2.58-3.444,17.44,25.221,25.29,47.281s11.12,32.369,8.8,36.286-17.48,17.524-20.9,21.992-16.37,9.552-7.69,16.493,17.71,14.776,20.89,20.892,5.89,10.377,4.4,14.3-7.85,14.225-15.4,19.792-12.52,4.329-16.49,6.6-8.4,7.628-9.9,9.9,5.07,5.429,4.4,8.8,0.95,15.051-12.09,21.992-16.65,7.628-18.7,9.9-7.02,5.429-8.79,2.2,3.69-5.017,3.3-9.9-0.71-6.117-4.4-9.9-2.63-8.866,0-6.6,3.14,1.856,3.3-1.1-1.81-34.706,1.1-38.485-0.71-3.093,2.19,0,9.2-11.89,7.7-14.295-7.3-.619-7.7-3.3-3.45-6.941-2.19-12.1,4.51-7.491,4.39-11-1.8-9.965-3.29-11-1.53-10.24,1.09-15.394,2.87-17.663,3.3-21.992,6.45-25.084,7.7-28.589,11.94-24.809,15.39-29.688,5.9-11.89,8.8-13.195,5.89-2.818,5.5-4.4S1438.12,410.673,1440.6,407.375ZM1251.47,730.649c3.18-.127,5.07-2.817,9.9-5.5s7.82-6.117,14.29-4.4,7.55,2.68,11,3.3,14.14-.344,10.99,5.5-10.32,11.751-13.19,25.29-5.38,24.122-8.8,29.689-1.25,10.1,0,13.2,6.72,1.03,4.4,7.7-1.25,6.253-5.5,3.3-4.27-4.467-7.69-4.4-4.28-1.443-4.4-4.4-1.81-.069-5.5-2.2-13.62-6.667-13.19-15.4,1.49-15.462-3.3-20.891-8.68-12.989-12.1-14.295-3.18-4.192-1.1-5.5-6.2-4.192-6.6-6.6-8.12-3.368-14.29-6.6,20.19-1.718,26.39,2.2S1244.6,730.924,1251.47,730.649Z"/>
</svg>
