<svg xmlns="http://www.w3.org/2000/svg" width="1945.281" height="239.531" viewBox="0 0 1945.281 239.531">
  <defs>
    <style>
      .cls-1 {
        fill: #fff;
        fill-rule: evenodd;
      }
    </style>
  </defs>
  <path id="LOGO_COMPOSITE" data-name="LOGO COMPOSITE" class="cls-1" d="M394.382,569.386h-84.67V805.518h17.2V728.269h67.467q44.527,0,69.828-21.083T489.51,649q0-37.443-25.3-58.527t-69.828-21.083h0Zm0,143.366H326.915V584.9h67.467q37.776,0,57.684,16.7T471.968,649q0,30.7-19.9,47.227t-57.684,16.529h0ZM635.573,567.7q-44.527,0-70.333,26.312t-25.806,76.237v135.27h17.2V732.655H714.509v72.863h17.2V670.248q0-49.92-25.637-76.237t-70.5-26.312h0ZM556.638,717.137V668.562q0-41.825,20.745-63.419t58.19-21.589q37.444,0,58.19,21.589t20.746,63.419v48.575H556.638ZM995.5,805.518l-59.033-82.646q26.644-7.756,40.986-26.818T991.792,649q0-37.443-25.3-58.527t-69.828-21.083h-84.67V805.518h17.2V728.269h67.466a171.755,171.755,0,0,0,22.939-1.686l56.334,78.935H995.5ZM829.2,713.089V584.9h67.466q37.776,0,57.684,16.7T974.25,649q0,30.7-19.9,47.395t-57.684,16.7H829.2ZM1148.98,567.7q-44.52,0-70.33,26.312t-25.81,76.237v135.27h17.21V732.655h157.87v72.863h17.2V670.248q0-49.92-25.63-76.237-25.65-26.311-70.51-26.312h0Zm-78.93,149.438V668.562q0-41.825,20.74-63.419t58.19-21.589q37.455,0,58.19,21.589t20.75,63.419v48.575H1070.05Zm395.68-33.395q18.225-6.072,28.85-19.9t10.62-34.071q0-29.007-21.42-44.7t-59.87-15.686H1325.4V805.518h105.25q43.185,0,65.11-16.191t21.92-46.215q0-24.288-13.32-39.468t-38.63-19.9h0Zm-42.5-99.513q31.035,0,47.73,11.975t16.7,34.914q0,23.275-16.7,35.251t-47.73,11.975h-80.62V584.229h80.62Zm7.42,206.447h-88.04V693.187h88.04q34.41,0,52.12,11.806t17.71,36.77q0,24.967-17.71,36.938t-52.12,11.975h0Zm248.62,16.529q34.74,0,62.74-15.517a114.3,114.3,0,0,0,44.02-42.841q16.02-27.324,16.02-61.395t-16.02-61.394a114.34,114.34,0,0,0-44.02-42.841q-28.005-15.513-62.74-15.518-34.755,0-62.75,15.686a115.485,115.485,0,0,0-44.02,43.01q-16.02,27.324-16.02,61.057t16.02,61.057a115.485,115.485,0,0,0,44.02,43.01q28.005,15.686,62.75,15.686h0Zm0-15.854q-29.7,0-53.81-13.494a99.025,99.025,0,0,1-37.95-37.275q-13.83-23.783-13.83-53.13t13.83-53.13a99.067,99.067,0,0,1,37.95-37.275q24.12-13.488,53.81-13.493,29.67,0,53.63,13.493a99.386,99.386,0,0,1,37.78,37.275q13.83,23.783,13.83,53.13t-13.83,53.13a99.343,99.343,0,0,1-37.78,37.275q-23.955,13.5-53.63,13.494h0Zm182.49,14.167h153.15V790H1878.97V569.386h-17.21V805.518Zm370.39-40h17.2v-95.27q0-49.92-25.63-76.237-25.65-26.311-70.51-26.312h0q-44.52,0-70.33,26.312t-25.81,76.237v135.27h17.21V668.562q0-41.825,20.74-63.419t58.19-21.589q37.455,0,58.19,21.589t20.75,63.419v96.956ZM2240,777a15,15,0,1,1-15,15A15,15,0,0,1,2240,777Z" transform="translate(-309.719 -567.688)"/>
</svg>
